Simulation
nRows=32
nColumns=15
endheader
time  TH_x TH_y TH_z SC_y  SC_z  SC_x  AC_y  AC_z  AC_x  GH_y  GH_z  GH_yy  EL_x  PS_y
5.745  0.000000  0.000000  0.000000  -34.293944918600936  -2.215683496720959  -23.282844469784497  60.48868555931631  -3.696797478714537  32.56254648882803  93.05486111871184  56.03843989230945  -117.84689531941108  20.37363634687694  120.000000
5.80245  0.000000  0.000000  0.000000  -31.84462748474206  -13.946820692778868  -6.7616567013748625  54.16966166205842  -17.73693776280438  8.951854912163311  79.77310432738912  35.287779603078725  -103.3333367557991  22.715909964003682  120.000000
5.8599  0.000000  0.000000  0.000000  -27.60987125673088  -15.31549411540668  -6.706373449263397  40.27911230509344  -21.266215769683356  0.49934526085193426  46.339691556229475  24.606488671748668  -23.249743692822655  28.930459560841708  120.000000
5.91735  0.000000  0.000000  0.000000  -33.136157643870256  -14.465359193045414  -0.11083168226532665  53.83953486218372  -20.694497535755968  4.085667198921217  -17.688981350082813  30.804429066513215  57.01226933528195  30.71986221025192  120.000000
5.9748  0.000000  0.000000  0.000000  -32.71648752237511  -2.2007621943198523  1.4056140544005344  56.76856347909526  -15.51603741071097  14.166487828797612  -33.7091455240011  30.16162801151897  64.99175672608679  32.570330222995395  120.000000
6.03225  0.000000  0.000000  0.000000  -36.546010334516716  5.65379492352348  -8.555891775061362  53.12286561746734  -9.790549741347471  15.255438332966923  27.16072347972021  36.71551685059679  -7.604633371317152  32.209489592474036  120.000000
6.089700000000001  0.000000  0.000000  0.000000  -38.70396371523231  -1.1549236349783059  -21.871491655022318  32.99868684299694  5.0062429452299435  2.0134512630089274  78.1770351518966  86.77480339639293  -25.22981450452887  15.935458800520843  120.000000
6.14715  0.000000  0.000000  0.000000  -26.701991714895616  5.743524178867202  -21.422256026325382  35.88092834768541  4.939442779693219  11.376258677495365  68.52669316700461  90.61067594547346  -15.950183157913308  12.845289498386622  120.000000
6.2046  0.000000  0.000000  0.000000  -33.349189757491196  8.518121204073669  -10.706191858708976  50.670010772742906  15.587801713832123  19.25638453524541  65.81697053736501  41.25256206421087  -61.07771223481137  16.208180708254012  120.000000
6.26205  0.000000  0.000000  0.000000  -44.369033036099694  15.352163656836792  -17.04841201640139  23.645468464998153  18.142273167826115  13.786029874402528  118.53815564425925  72.70914066232075  -91.4599969999012  9.97791789446692  120.000000
6.3195  0.000000  0.000000  0.000000  -58.47879292984832  45.33074501942634  1.1731519806689916  48.20640613945099  12.634642169376116  34.72971582017202  126.74169207831935  53.171330047499964  -94.58093974008776  20.313459308759153  120.000000
6.37695  0.000000  0.000000  0.000000  -69.13635153508112  13.728921046539087  21.332577299986873  79.85900207727589  18.360218493397436  17.764729710190764  98.12263663952007  50.685386632931994  -65.4531001442442  5.4102152900785185  120.000000
6.4344  0.000000  0.000000  0.000000  -46.89087122239545  -20.24320294803061  -3.9117875513887497  53.047731678888  -4.277778358778253  -15.796179214489998  96.63461202293195  83.57511550275402  -44.75113891795124  5.974922565650427  120.000000
6.49185  0.000000  0.000000  0.000000  -33.39632747819194  -2.444029299966334  -7.433522770314863  30.95290294194285  12.836168832268692  -2.8938179612707775  123.54995070209407  79.79377939204053  -72.91074551308968  19.593890211841984  120.000000
6.549300000000001  0.000000  0.000000  0.000000  -70.63037269320809  16.450647708059744  17.91480428431673  59.43312599965039  29.719589982092202  3.872539991536851  130.13387639577013  68.53504665534312  -82.916036481296  18.107394403411334  120.000000
6.60675  0.000000  0.000000  0.000000  -84.53640321994102  6.856280548715386  43.51105549237725  57.17558347986718  5.470490956171834  16.24584719489487  178.97037054663235  19.325647896035132  -146.59300782876707  29.257517854160188  120.000000
6.6642  0.000000  0.000000  0.000000  -54.55413655174007  9.756494877095856  26.246178404061585  64.00278628661461  1.1762512113792503  -6.675893410602297  162.94244447773258  19.15058908028091  -169.89678019272034  32.545129632798336  120.000000
6.72165  0.000000  0.000000  0.000000  -42.690166700032584  1.991781003084431  11.378505171035348  81.18402017177841  -3.7657203548071694  -20.268267204898727  123.28180035278008  31.47809357081339  -122.91783235704034  29.062726434558027  120.000000
6.7791  0.000000  0.000000  0.000000  -45.97489903067078  -0.19206585083511007  7.664526479659666  52.12280146974199  1.4372315020325355  -21.66466787458599  136.24298595631018  44.84031939431898  -93.3583345644469  21.82273594728672  120.000000
6.83655  0.000000  0.000000  0.000000  -43.234029302701934  -0.3967740452068224  2.334582327743908  61.495936144175026  7.49278652261615  -25.886527821933345  121.27340976590563  79.36016620913568  -70.93226812228289  14.495320730408743  120.000000
6.894  0.000000  0.000000  0.000000  -48.71873053305057  -7.430502690156961  25.05402877240121  69.63536186218268  4.461955355649218  -12.146679116836667  129.68017141046982  81.79094019976156  -78.6398557818386  5.907693248713178  120.000000
6.95145  0.000000  0.000000  0.000000  -45.95327358029037  -14.694671138661631  19.375884533525678  57.313628480704025  -22.806792407099962  -9.401359603887316  121.24378967953622  81.80079708164293  -87.25807795251207  12.919556774650369  120.000000
7.008900000000001  0.000000  0.000000  0.000000  -42.92415611473891  12.674612305977165  27.892789935999183  80.58100811432858  -26.959816094787584  -0.21979067102022215  90.69036319353616  76.94843643325764  -118.5598524508257  32.395261640696035  120.000000
7.06635  0.000000  0.000000  0.000000  -68.34211279268385  25.75183270018161  47.35854374805486  71.78074135691631  10.912234710133191  39.98459432051972  130.33062442910938  22.881652431015276  -153.5223266580981  32.75846097539623  120.000000
7.1238  0.000000  0.000000  0.000000  -66.74512397844128  41.79006232472458  23.534494901018775  36.28442493874023  13.744875872919595  36.25907669568842  138.4947338923311  22.410007098403714  -154.019304914036  32.86564432093763  120.000000
7.18125  0.000000  0.000000  0.000000  -40.96939742633704  35.59416567012576  -9.460076660365251  24.90286055095174  26.160461871663955  4.499259070104444  76.19081938167116  78.76835509605806  -104.2889431216966  19.606259151973426  120.000000
7.2387  0.000000  0.000000  0.000000  -50.49024148448159  -4.673459165591329  -7.560968035050259  42.22762260219183  26.387687439118036  -1.8854742825804827  36.426921963348526  104.95206079210683  -69.8691660726974  5.306761984648064  120.000000
7.29615  0.000000  0.000000  0.000000  -64.78438789605696  -4.191460897599318  -0.18145408706836394  58.03997478960507  30.526379991743237  3.965563577182133  35.458540340113245  75.6181404306601  -56.624988836883475  12.660054138268649  120.000000
7.3536  0.000000  0.000000  0.000000  -62.972645767708286  10.617328626714075  23.013114403154976  58.18785987877284  33.22632483555156  27.065930917122447  -122.10659853981322  27.616771340212406  122.87844111228603  20.314350344964296  120.000000
7.41105  0.000000  0.000000  0.000000  -28.846450701240705  14.748272163872604  5.748075633730969  42.32822418441936  14.592310914891355  16.678066522203363  -123.82874854098148  30.18515182905396  130.98897211863326  25.15197801022537  120.000000
7.468500000000001  0.000000  0.000000  0.000000  -43.90758566226022  2.9379210600860066  1.5195976036077568  41.60176621420431  7.528628169526848  -9.984382010774103  66.16683757417987  22.406242376072797  -89.05065825479777  24.072801538264986  120.000000
7.52595  0.000000  0.000000  0.000000  -61.7662086435913  -8.277960138602928  4.025660194746353  43.71317382546811  -1.1739315100033174  -19.86742917026056  86.02716321619245  50.20769319303795  -108.82960036640378  20.070317542809565  120.000000
